<?xml version="1.0" encoding="UTF-8"?>
<svg xmlns="http://www.w3.org/2000/svg" onmouseup="{ if(window.parent.document.onmouseup) window.parent.document.onmouseup(arguments[0]);}" width="36" viewBox="0 0 36 36" id="S_VolumeMute_18_N_2x" height="36" data-name="S_VolumeMute_18_N@2x"><defs><style>
      .fill {
        fill: #6e6e6e;
      }

      
    </style></defs><path data-cppathid="10000" d="M12,27a10.983,10.983,0,0,1,4-8.478V5a.726.726,0,0,0-1.194-.571l-6.639,6.8c-.439.447-.726.845-1.422.845H1a1,1,0,0,0-1,1V23a1,1,0,0,0,1,1H6.745c.7,0,1,.411,1.422.845l4.005,4.1A11.013,11.013,0,0,1,12,27Z" class="fill"/><path data-cppathid="10001" d="M23,18.1A8.9,8.9,0,1,0,31.9,27,8.9,8.9,0,0,0,23,18.1ZM16,27a6.929,6.929,0,0,1,1.475-4.252l9.777,9.777A6.966,6.966,0,0,1,16,27Zm12.525,4.252-9.777-9.777a6.966,6.966,0,0,1,9.777,9.777Z" class="fill"/></svg>